# xmcd
#
# Track frame offsets: 
#        150
#        13191
#        44819
#        75797
#        111332
#
# Disc length: 1937 seconds
#
# Revision: 1
# Processed by: cddbd v1.5.2PL0 Copyright (c) Steve Scherf et al.
# Submitted via: ExactAudioCopy v0.99pb4
#
DISCID=37078f05
DTITLE=Armin van Buuren - Never Say Never (feat. Jacqueline Govaert)
DYEAR=2009
DGENRE=Trance
TTITLE0=Never Say Never (Radio Edit)
TTITLE1=Never Say Never (Extended Mix)
TTITLE2=Never Say Never (Alex Gaudino Remix)
TTITLE3=Never Say Never (Myon and Shane 54 Remix)
TTITLE4=Never Say Never (Omnia Remix)
EXTD=
EXTT0=
EXTT1=
EXTT2=
EXTT3=
EXTT4=
PLAYORDER=
